<svg xmlns="http://www.w3.org/2000/svg" viewBox="0 0 200 200" fill="white">
  <g transform="translate(0,-66.667)">
    <path d="m15.161 77.982c.544-1.762 1.288-3.27 2.204-4.534l92.974 93.102-92.483 93.392c-.611-.724-1.146-1.525-1.608-2.393-2.958-5.568-2.128-14.137-2.128-20.421V94.564c0-5.183-.476-11.665 1.041-16.581zm11.848-9.565c.176-.011 .354-.019 .532-.024 7.635-.216 11.624 3.209 17.88 6.896l98.805 57.04-26.584 26.845-90.633-90.758zm126.511 69.279l21.12 12.192c4.202 2.426 7.842 4.206 11.003 8.085 5.147 6.319 4.476 13.561-2.94 19.659-3.277 2.695-7.702 4.932-11.402 7.078l-17.833 10.34-28.491-28.529 28.544-28.824zm-9.343 62.741l-104.389 60.53c-3.445 1.998-5.119 2.837-9.255 3.298-.859 .096-1.686 .138-2.48 .13l89.619-90.499 26.505 26.541z"></path>
  </g>
</svg>