<svg xmlns="http://www.w3.org/2000/svg" viewBox="0 0 40 50" fill="white">
  <path d="M39.054 34.065q-1.093 3.504-3.448 7.009-3.617 5.495-7.205 5.495-1.374 0-3.925-.897-2.411-.897-4.233-.897-1.71 0-3.981.925-2.271.953-3.701.953-4.261 0-8.439-7.261Q.001 32.075.001 25.29q0-6.392 3.168-10.485 3.14-4.037 7.962-4.037 2.019 0 4.962.841 2.916.841 3.869.841 1.262 0 4.009-.953 2.86-.953 4.85-.953 3.336 0 5.972 1.822 1.458 1.009 2.916 2.804-2.215 1.878-3.196 3.308-1.822 2.635-1.822 5.803 0 3.476 1.934 6.252t4.43 3.533zM28.512 1.179q0 1.71-.813 3.813-.841 2.103-2.607 3.869-1.514 1.514-3.028 2.019-1.037.308-2.916.477.084-4.177 2.187-7.205 2.075-3 7.009-4.149.028.084.07.308t.07.308q0 .112.014.28t.014.28z"></path>
</svg>