<svg xmlns="http://www.w3.org/2000/svg" viewBox="0 0 20 20" fill="white">
  <g transform="translate(-6,-6)">
    <path d="M9.938 24.031c-.344 .6-1.113 .8-1.706 .456-.6-.344-.8-1.113-.456-1.706l.894-1.544c1.006-.306 1.831-.069 2.475 .712zM18.619 20.663h-11.369c-.688 0-1.25-.563-1.25-1.25s.563-1.25 1.25-1.25h3.188l4.087-7.075-1.281-2.212c-.344-.6-.137-1.363 .456-1.706 .6-.344 1.363-.137 1.706 .456l.556 .962 .556-.962c.344-.6 1.113-.8 1.706-.456 .6 .344 .8 1.113 .456 1.706l-5.362 9.288h3.881c1.262 0 1.969 1.481 1.419 2.5zM24.75 20.663h-1.813l1.225 2.119c.344 .6 .137 1.363-.456 1.706-.6 .344-1.363 .137-1.706-.456-2.056-3.556-3.594-6.231-4.625-8.006-1.044-1.813-.3-3.625 .444-4.237 .819 1.419 2.044 3.544 3.681 6.375h3.25c.688 0 1.25 .563 1.25 1.25 0 .694-.563 1.25-1.25 1.25z"></path>
  </g>
</svg>